<?xml version="1.0" encoding="UTF-8"?>
<svg version="1.1" xmlns="http://www.w3.org/2000/svg" width="336" height="329">
<path d="M0 0 C110.88 0 221.76 0 336 0 C336 108.57 336 217.14 336 329 C225.12 329 114.24 329 0 329 C0 220.43 0 111.86 0 0 Z " fill="#1A1939" transform="translate(0,0)"/>
<path d="M0 0 C110.88 0 221.76 0 336 0 C336 108.57 336 217.14 336 329 C225.12 329 114.24 329 0 329 C0 220.43 0 111.86 0 0 Z M109.49609375 7.4296875 C108.49306717 7.46556473 107.49004059 7.50144196 106.45661926 7.53840637 C78.51368456 8.72755338 50.37851981 12.30777087 30.3125 33.75 C17.73266146 48.911079 13.02953985 67.61356371 11.8515625 86.90625 C11.77249664 88.10697144 11.69343079 89.30769287 11.61196899 90.5447998 C10.75289613 104.5199554 10.53936265 118.50253848 10.375 132.5 C10.34762973 134.55034531 10.31920427 136.60067437 10.29074287 138.65100479 C4.15330314 223.06300008 4.15330314 223.06300008 35.7890625 296.87890625 C50.43305853 310.8062812 70.25570919 315.5204641 89.828125 317.08203125 C90.86100647 317.16540237 91.89388794 317.2487735 92.95806885 317.33467102 C105.87472015 318.3046779 118.80228212 318.51759947 131.75 318.6875 C133.09452504 318.70685726 134.43904813 318.72634975 135.78356934 318.74597168 C157.21351784 319.05086164 178.63867457 319.03544132 200.06898499 318.77505875 C202.2117837 318.75043909 204.35458006 318.73037125 206.49743652 318.71151733 C257.47365911 318.68126671 257.47365911 318.68126671 300.75 294.6875 C323.07911085 271.41490559 322.76205857 234.90751686 323.5625 204.75 C323.58334656 203.97729767 323.60419312 203.20459534 323.62567139 202.40847778 C324.05710129 185.75349463 324.10929008 169.09728726 324.125 152.4375 C324.1275882 151.19214478 324.13017639 149.94678955 324.13284302 148.66369629 C325.65661903 96.08316161 325.65661903 96.08316161 312 46 C311.39091797 44.74316406 311.39091797 44.74316406 310.76953125 43.4609375 C302.5941058 28.35677904 287.83026032 17.65858805 271.5234375 12.80078125 C239.62279012 5.55063412 205.83109242 6.69435332 173.32971191 6.80438232 C169.30485266 6.81521103 165.28002685 6.81480262 161.25515556 6.81438351 C135.37108319 6.81226071 135.37108319 6.81226071 109.49609375 7.4296875 Z " fill="#0C081D" transform="translate(0,0)"/>
<path d="M0 0 C0.76763672 -0.020625 1.53527344 -0.04125 2.32617188 -0.0625 C7.96329897 -0.10181736 7.96329897 -0.10181736 10.15549898 1.52461106 C12.45863231 4.62429719 11.85444159 8.55781093 11.83190918 12.27757263 C11.83800028 13.21244713 11.84409139 14.14732164 11.85036707 15.11052567 C11.86707353 18.25666707 11.86221035 21.40240713 11.85742188 24.54858398 C11.86475775 26.79866967 11.87334255 29.04875158 11.88308716 31.29882812 C11.90536217 37.42065778 11.90823086 43.54235309 11.90633965 49.66421771 C11.90622022 54.76886768 11.91477271 59.87348888 11.92311716 64.97813088 C11.94347466 77.70642976 11.94449338 90.43462894 11.93731004 103.16293222 C11.93173375 114.22112799 11.95256219 125.27909214 11.98567051 136.33723377 C12.01938931 147.68721964 12.03410322 159.03706131 12.02995348 170.38711029 C12.02788146 176.76113401 12.03343516 183.13492708 12.05784607 189.50890923 C12.08003734 195.50160633 12.0782987 201.49381995 12.05791855 207.48651886 C12.05449504 209.68921086 12.05965484 211.89193493 12.07390213 214.09458351 C12.09197698 217.09544116 12.07943295 220.09463803 12.05895996 223.09544373 C12.07147781 223.97277316 12.08399566 224.8501026 12.09689283 225.75401777 C12.01055517 231.63264802 12.01055517 231.63264802 9.08933258 234.7796793 C5.95845736 236.51560738 3.69128387 236.91145007 0.125 237.125 C-1.47794922 237.24488281 -1.47794922 237.24488281 -3.11328125 237.3671875 C-6.5625 237.25 -6.5625 237.25 -14.5625 235.25 C-14.8925 174.53 -15.2225 113.81 -15.5625 51.25 C-19.97749401 49.4840024 -22.40575744 48.93503911 -26.99609375 48.6875 C-28.2694458 48.61402344 -29.54279785 48.54054687 -30.85473633 48.46484375 C-32.23649084 48.39322824 -33.6182454 48.32161368 -35 48.25 C-36.43714927 48.16895875 -37.87424216 48.08691201 -39.3112793 48.00390625 C-42.27409803 47.83306817 -45.23707445 47.66550966 -48.20019531 47.5 C-54.76146906 47.12898314 -61.31806189 46.69065562 -67.875 46.25 C-68.95386475 46.17910156 -70.03272949 46.10820313 -71.14428711 46.03515625 C-83.95635988 45.18207818 -96.7561981 44.19861496 -109.5625 43.25 C-109.5625 98.69 -109.5625 154.13 -109.5625 211.25 C-117.47834158 211.25 -117.47834158 211.25 -120.875 209.875 C-121.53113281 209.61976563 -122.18726562 209.36453125 -122.86328125 209.1015625 C-124.5625 208.25 -124.5625 208.25 -126.5625 206.25 C-126.81697559 203.21956825 -126.81697559 203.21956825 -126.82319641 199.24087524 C-126.82702196 198.51103279 -126.83084751 197.78119033 -126.83478898 197.02923143 C-126.84515029 194.57101049 -126.84112095 192.11302176 -126.8371582 189.65478516 C-126.841503 187.89745364 -126.84668536 186.14012402 -126.85264587 184.38279724 C-126.86607328 179.59972056 -126.86661032 174.81672271 -126.86408257 170.03363085 C-126.86301523 166.04494918 -126.86789022 162.05628361 -126.872688 158.06760538 C-126.88379646 148.65899037 -126.88421329 139.25041528 -126.87817383 129.84179688 C-126.87213392 120.12720548 -126.88444243 110.41275892 -126.9057439 100.69819224 C-126.92334397 92.3660895 -126.92936371 84.03403293 -126.92610615 75.70191228 C-126.92429035 70.72185481 -126.92695882 65.74190059 -126.94082069 60.76185989 C-126.95336827 56.07839748 -126.95148414 51.39516117 -126.93840981 46.71170235 C-126.93603763 44.99116885 -126.93880157 43.27061959 -126.94703293 41.55010414 C-126.95744838 39.20416879 -126.94944222 36.85899939 -126.9367218 34.51309204 C-126.93688954 33.1993693 -126.93705729 31.88564655 -126.93723011 30.53211403 C-126.5404136 27.05655391 -126.05149072 25.65930816 -123.5625 23.25 C-120.59669495 22.24662781 -120.59669495 22.24662781 -116.90844727 21.5300293 C-116.23431793 21.39438568 -115.5601886 21.25874207 -114.8656311 21.11898804 C-112.62282513 20.67178014 -110.37623518 20.24806086 -108.12890625 19.82421875 C-106.53763914 19.51181896 -104.94665531 19.19797316 -103.35594177 18.88276672 C-99.13593773 18.05064073 -94.91235967 17.23827176 -90.68774414 16.42993164 C-86.53629474 15.63223007 -82.38841892 14.81642999 -78.24023438 14.00195312 C-70.01702637 12.39061914 -61.79004074 10.79936046 -53.56182861 9.21380615 C-45.95172557 7.74730887 -38.34308881 6.27326235 -30.73496819 4.79651833 C-28.39085055 4.34192301 -26.04646053 3.8887534 -23.70204163 3.43571472 C-22.28043428 3.16008634 -20.85883838 2.88439898 -19.43725586 2.60864258 C-17.58407997 2.2499987 -17.58407997 2.2499987 -15.69346619 1.8841095 C-10.26132729 0.78394723 -5.56135313 0.037545 0 0 Z " fill="#F5F6F8" transform="translate(195.5625,42.75)"/>
<path d="M0 0 C13.14965527 0.58113192 26.29671036 1.19794162 39.4420166 1.87042236 C41.74862653 1.98726638 44.05540071 2.09959869 46.36230469 2.21044922 C49.84784079 2.38566228 53.32962016 2.59144161 56.8125 2.8125 C57.79855225 2.85810059 58.78460449 2.90370117 59.80053711 2.95068359 C61.14643921 3.04663818 61.14643921 3.04663818 62.51953125 3.14453125 C63.65032104 3.21184448 63.65032104 3.21184448 64.80395508 3.28051758 C68.19864275 4.39270708 69.74430021 6.26425762 72 9 C72.6292057 12.38675117 72.6292057 12.38675117 72.63491821 16.33865356 C72.64271817 17.06768131 72.65051812 17.79670906 72.65855443 18.54782856 C72.67846615 20.98569065 72.66271478 23.42199019 72.64697266 25.85986328 C72.65374908 27.60941478 72.66265235 29.35895914 72.67352295 31.10848999 C72.69631668 35.85635572 72.68748058 40.60367822 72.67162752 45.35155344 C72.65897293 50.31762569 72.67070704 55.28365128 72.67855835 60.24972534 C72.68765449 68.58730427 72.67566612 76.92466172 72.65185547 85.26220703 C72.62462644 94.90827218 72.6334714 104.55380923 72.6609875 114.19986165 C72.68365728 122.47769389 72.68688963 130.75536693 72.67379415 139.03322017 C72.66599019 143.97915552 72.66498429 148.92484238 72.68147659 153.87076187 C72.69589178 158.51832257 72.68595412 163.16520023 72.65700531 167.81268692 C72.65037939 169.52073023 72.65231781 171.22883077 72.66331863 172.9368515 C72.67692711 175.26378836 72.65991986 177.58851862 72.63491821 179.91531372 C72.63209052 181.87037433 72.63209052 181.87037433 72.6292057 183.86493111 C72 187 72 187 69.64781761 188.86857414 C64.76470925 190.95515104 61.39940547 192 56 192 C55.67 135.57 55.34 79.14 55 21 C38.83 20.01 22.66 19.02 6 18 C4.02 17.67 2.04 17.34 0 17 C0 11.39 0 5.78 0 0 Z " fill="#3B417D" transform="translate(207,63)"/>
<path d="M0 0 C2.77141717 -0.08089542 5.54047819 -0.14044062 8.3125 -0.1875 C9.09818359 -0.21263672 9.88386719 -0.23777344 10.69335938 -0.26367188 C11.45068359 -0.27333984 12.20800781 -0.28300781 12.98828125 -0.29296875 C14.03302612 -0.31653442 14.03302612 -0.31653442 15.09887695 -0.34057617 C17.62606953 0.11215706 18.39279933 1.02736614 20 3 C20.29950728 6.07578964 20.41305174 8.94996694 20.39440918 12.02757263 C20.40354584 13.42988438 20.40354584 13.42988438 20.41286707 14.86052567 C20.42957353 18.00666707 20.42471035 21.15240713 20.41992188 24.29858398 C20.42725775 26.54866967 20.43584255 28.79875158 20.44558716 31.04882812 C20.46786217 37.17065778 20.47073086 43.29235309 20.46883965 49.41421771 C20.46872022 54.51886768 20.47727271 59.62348888 20.48561716 64.72813088 C20.50597466 77.45642976 20.50699338 90.18462894 20.49981004 102.91293222 C20.49423375 113.97112799 20.51506219 125.02909214 20.54817051 136.08723377 C20.58188931 147.43721964 20.59660322 158.78706131 20.59245348 170.13711029 C20.59038146 176.51113401 20.59593516 182.88492708 20.62034607 189.25890923 C20.64253734 195.25160633 20.6407987 201.24381995 20.62041855 207.23651886 C20.61699504 209.43921086 20.62215484 211.64193493 20.63640213 213.84458351 C20.65447698 216.84544116 20.64193295 219.84463803 20.62145996 222.84544373 C20.64023673 224.16143788 20.64023673 224.16143788 20.65939283 225.50401777 C20.57314079 231.37681809 20.57314079 231.37681809 17.66941071 234.53407383 C14.38551694 236.33744781 11.91813561 236.59926725 8.1875 236.75 C7.02605469 236.80671875 5.86460937 236.8634375 4.66796875 236.921875 C3.34732422 236.96054687 3.34732422 236.96054687 2 237 C2 236.67 2 236.34 2 236 C3.98 236 5.96 236 8 236 C7.89535058 206.47859212 7.7856564 176.9572064 7.66888306 147.43584395 C7.65511287 143.95348596 7.64138587 140.4711278 7.62768555 136.98876953 C7.62495724 136.29547153 7.62222894 135.60217352 7.61941796 134.88786648 C7.57529874 123.65040388 7.53468035 112.41293119 7.49534739 101.17545094 C7.45493432 89.65155907 7.41070428 78.12768719 7.36312145 66.60382259 C7.33650501 60.12819246 7.31165157 53.6525661 7.29092598 47.17691422 C7.27138493 41.08837025 7.24724882 34.99986221 7.21950912 28.91135025 C7.21012524 26.67074229 7.20245481 24.43012644 7.19658089 22.18950653 C7.18834238 19.14234 7.17407213 16.0952612 7.15821838 13.04812622 C7.15724028 12.1512519 7.15626217 11.25437758 7.15525442 10.33032525 C7.25390939 6.02923302 7.25390939 6.02923302 6 2 C2.97065509 1.34227572 2.97065509 1.34227572 0 1 C0 0.67 0 0.34 0 0 Z " fill="#A8BEE0" transform="translate(187,43)"/>
<path d="M0 0 C4.65332141 2.49900594 7.4651554 5.4477331 10.375 9.8125 C11.08452935 16.19826411 11.26582936 22.44583882 7.375 27.8125 C1.74829977 32.89025387 -1.96429195 33.16811696 -9.41796875 33.0859375 C-13.60249541 32.72915691 -15.6529731 31.7845269 -18.625 28.8125 C-23.06814215 23.08318513 -23.49869712 17.94229997 -22.625 10.8125 C-20.86192004 5.52326013 -18.01344888 3.01241064 -13.625 -0.1875 C-8.7438251 -1.8145583 -4.88094987 -1.59893185 0 0 Z " fill="#F3B16E" transform="translate(243.625,161.1875)"/>
<path d="M0 0 C4.22296848 1.82229409 7.55871421 4.16975285 10.04296875 8.08203125 C12.11985836 13.5791198 12.21197586 20.18482509 9.9375 25.625 C7.50923021 29.2481327 4.8266605 31.39240657 0.89453125 33.3359375 C-4.86671883 34.13631142 -10.28290683 34.10333199 -15.66796875 31.8359375 C-20.40386173 26.97861136 -22.32739881 22.52365095 -22.60546875 15.7109375 C-22.38906161 10.81472597 -21.57360034 7.97747567 -18.10546875 4.3359375 C-12.36067217 -0.44291983 -7.24841467 -2.28614192 0 0 Z " fill="#9C7CDE" transform="translate(243.10546875,113.6640625)"/>
<path d="M0 0 C4.90498706 2.23736252 7.729879 5.11050861 10 10 C10.75703138 15.62366168 10.79821607 20.34444075 8.3125 25.5 C1.63293068 32.72115602 1.63293068 32.72115602 -2.91796875 33.203125 C-8.30652738 33.31442053 -12.2174443 32.75916675 -17 30 C-21.18847223 25.93088838 -23.15994095 22.6338321 -23.3125 16.8125 C-23.23117185 9.90864378 -21.49081725 6.49081725 -16.5625 1.5625 C-11.09030025 -0.83758761 -5.88020903 -0.73408979 0 0 Z " fill="#61B682" transform="translate(244,207)"/>
<path d="M0 0 C2.06723714 3.10085571 2.24497423 3.72931681 2.1953125 7.23046875 C2.18886719 8.03291016 2.18242187 8.83535156 2.17578125 9.66210938 C2.15902344 10.49548828 2.14226562 11.32886719 2.125 12.1875 C2.11597656 13.03248047 2.10695313 13.87746094 2.09765625 14.74804688 C2.07410703 16.83215243 2.03823647 18.91611217 2 21 C3.32 20.67 4.64 20.34 6 20 C6.99 21.32 7.98 22.64 9 24 C9.33 22.35 9.66 20.7 10 19 C10.99 19.33 11.98 19.66 13 20 C14.89885096 18.10114904 14.12367506 15.42752097 14.1328125 12.91015625 C14.11686861 10.91365633 14.11686861 10.91365633 13 9 C12.34 9 11.68 9 11 9 C11.33 7.68 11.66 6.36 12 5 C12.66 5 13.32 5 14 5 C14.33 4.01 14.66 3.02 15 2 C15.33 2 15.66 2 16 2 C16.12662639 8.35354365 16.21427701 14.70676289 16.2746582 21.0612793 C16.29982499 23.22351236 16.33396158 25.38566018 16.37719727 27.54760742 C16.43775296 30.65304572 16.46618787 33.75736097 16.48828125 36.86328125 C16.51408768 37.83211746 16.5398941 38.80095367 16.56648254 39.79914856 C16.56753026 42.2979446 16.52870487 44.55778464 16 47 C13.65698242 49.05932617 13.65698242 49.05932617 11 50 C9.515 50.5878125 9.515 50.5878125 8 51.1875 C5 52 5 52 0 52 C0 34.84 0 17.68 0 0 Z " fill="#313667" transform="translate(263,203)"/>
<path d="M0 0 C3.5386994 1.65139305 4.81070153 2.71605229 7 6 C7.34207368 9.80556973 7.04155983 13.52417419 4.80078125 16.69921875 C2.37157801 18.92439442 0.20395077 19.95751026 -3 20.625 C-7.19977529 19.75004681 -8.93868007 17.99012644 -12 15 C-13.55024464 11.89951072 -13.28992015 9.42105782 -13 6 C-9.27625236 0.29025362 -6.72149163 -0.45569435 0 0 Z " fill="#F0F1F4" transform="translate(164,163)"/>
</svg>
